<?xml version="1.0" encoding="UTF-8" standalone="no"?>
<!-- Generator: Adobe Illustrator 16.0.0, SVG Export Plug-In . SVG Version: 6.00 Build 0)  -->

<svg
   xmlns:dc="http://purl.org/dc/elements/1.1/"
   xmlns:cc="http://creativecommons.org/ns#"
   xmlns:rdf="http://www.w3.org/1999/02/22-rdf-syntax-ns#"
   xmlns:svg="http://www.w3.org/2000/svg"
   xmlns="http://www.w3.org/2000/svg"
   xmlns:sodipodi="http://sodipodi.sourceforge.net/DTD/sodipodi-0.dtd"
   xmlns:inkscape="http://www.inkscape.org/namespaces/inkscape"
   version="1.1"
   x="0px"
   y="0px"
   width="586.66669"
   height="106.66666"
   viewBox="0 0 550 100"
   enable-background="new 0.5 0 320 50"
   xml:space="preserve"
   id="svg4651"
   sodipodi:docname="casLogo_2.svg"
   inkscape:version="0.92.4 (5da689c313, 2019-01-14)"
   inkscape:export-filename="/home/jnguyen/Downloads/facultyBlog.png"
   inkscape:export-xdpi="96"
   inkscape:export-ydpi="96"><metadata
     id="metadata4657"><rdf:RDF><cc:Work
         rdf:about=""><dc:format>image/svg+xml</dc:format><dc:type
           rdf:resource="http://purl.org/dc/dcmitype/StillImage" /><dc:title /></cc:Work></rdf:RDF></metadata><defs
     id="defs4655"><linearGradient
   y2="0"
   x2="45"
   y1="0"
   x1="0"
   gradientUnits="userSpaceOnUse"
   id="SVGID_1_"
   gradientTransform="translate(-0.75650132)"><stop
     id="stop4605"
     style="stop-color:#E04E5B"
     offset="0" /><stop
     id="stop4607"
     style="stop-color:#FAA930"
     offset="0.2498" /><stop
     id="stop4609"
     style="stop-color:#BEB247"
     offset="0.3831" /><stop
     id="stop4611"
     style="stop-color:#7DB457"
     offset="0.5118" /><stop
     id="stop4613"
     style="stop-color:#75B67C"
     offset="0.6301" /><stop
     id="stop4615"
     style="stop-color:#6DB795"
     offset="0.7426" /><stop
     id="stop4617"
     style="stop-color:#67B9A8"
     offset="0.8452" /><stop
     id="stop4619"
     style="stop-color:#63B9B3"
     offset="0.9343" /><stop
     id="stop4621"
     style="stop-color:#61BAB7"
     offset="1" /></linearGradient>







</defs><sodipodi:namedview
     pagecolor="#ffffff"
     bordercolor="#666666"
     borderopacity="1"
     objecttolerance="10"
     gridtolerance="10"
     guidetolerance="10"
     inkscape:pageopacity="0"
     inkscape:pageshadow="2"
     inkscape:window-width="1850"
     inkscape:window-height="1016"
     id="namedview4653"
     showgrid="false"
     inkscape:zoom="1.8694136"
     inkscape:cx="248.72288"
     inkscape:cy="11.400073"
     inkscape:window-x="70"
     inkscape:window-y="27"
     inkscape:window-maximized="1"
     inkscape:current-layer="text906"
     fit-margin-top="0"
     fit-margin-left="0"
     fit-margin-right="0"
     fit-margin-bottom="0"
     showguides="true"
     inkscape:guide-bbox="true"
     inkscape:pagecheckerboard="true"
     inkscape:snap-page="false"
     inkscape:snap-object-midpoints="true"
     inkscape:snap-text-baseline="true"><sodipodi:guide
       position="102.12766,368.08512"
       orientation="1,0"
       id="guide4526"
       inkscape:locked="false" /></sodipodi:namedview><g
     aria-label="Centralized Administration System"
     style="font-style:normal;font-variant:normal;font-weight:bold;font-stretch:normal;font-size:30px;line-height:1.25;font-family:'Josefin Sans';-inkscape-font-specification:'Josefin Sans Bold';letter-spacing:0px;word-spacing:0px;fill:#1a1a1a;fill-opacity:1;stroke:none;stroke-width:0.93750006"
     id="text906"
     transform="matrix(1.2171522,0,0,1.3712194,28.933653,-7.7564021)"><path
       d="m 101.44155,32.422545 q -1.05,0.69 -2.670002,1.29 -1.59,0.57 -3.48,0.57 -3.33,0 -5.88,-1.47 -2.52,-1.47 -3.9,-3.96 -1.35,-2.49 -1.35,-5.49 0,-3.21 1.38,-5.76 1.38,-2.58 3.81,-4.02 2.46,-1.47 5.55,-1.47 1.83,0 3.42,0.48 1.59,0.48 2.850002,1.26 l -1.17,2.73 q -2.490002,-1.68 -5.010002,-1.68 -2.1,0 -3.9,1.11 -1.77,1.11 -2.85,3.03 -1.05,1.89 -1.05,4.17 0,2.34 0.96,4.23 0.99,1.89 2.79,2.97 1.83,1.05 4.2,1.05 2.91,0 5.070002,-1.65 z"
       style="font-style:normal;font-variant:normal;font-weight:bold;font-stretch:normal;font-size:30px;font-family:'Josefin Sans';-inkscape-font-specification:'Josefin Sans Bold';fill:#ffffff;fill-opacity:1;stroke-width:0.93750006"
       id="path959"
       inkscape:connector-curvature="0" /><path
       d="m 114.78086,31.942545 q 1.76992,0 3.43773,-1.08 l 1.46359,2.07 q -1.12322,0.66 -2.45066,1.05 -1.29341,0.36 -2.51874,0.36 -2.34855,0 -4.11847,-0.84 -1.73589,-0.87 -2.68893,-2.37 -0.95303,-1.5 -0.95303,-3.39 0,-1.83 1.02111,-3.33 1.05515,-1.53 2.85911,-2.4 1.80396,-0.9 3.94829,-0.9 2.75699,0 4.59499,1.44 1.87203,1.41 2.55277,3.96 l -11.16413,3.45 q 0.61267,0.93 1.63378,1.47 1.05514,0.51 2.38259,0.51 z m -0.23826,-8.61 q -1.94011,0 -3.19948,1.2 -1.25937,1.2 -1.25937,3.06 0,0.45 0.034,0.69 l 8.20291,-2.67 q -0.51055,-1.02 -1.46359,-1.65 -0.919,-0.63 -2.31451,-0.63 z"
       style="font-style:normal;font-variant:normal;font-weight:bold;font-stretch:normal;font-size:30px;font-family:'Josefin Sans';-inkscape-font-specification:'Josefin Sans Bold';fill:#ffffff;fill-opacity:1;stroke-width:0.99858779"
       id="path961"
       inkscape:connector-curvature="0" /><path
       d="m 134.60847,21.142545 q 1.97414,0 3.26755,1.05 1.29341,1.02 1.32744,2.67 v 9.18 h -3.19947 v -8.22 q -0.0681,-1.05 -0.71478,-1.65 -0.6467,-0.6 -1.94011,-0.63 -1.87203,0 -3.09737,1.32 -1.22533,1.32 -1.22533,3.36 v 5.82 h -3.16544 v -12.42 h 2.85911 l 0.20422,2.4 q 0.74882,-1.35 2.24644,-2.1 1.49763,-0.78 3.43774,-0.78 z"
       style="font-style:normal;font-variant:normal;font-weight:bold;font-stretch:normal;font-size:30px;font-family:'Josefin Sans';-inkscape-font-specification:'Josefin Sans Bold';fill:#ffffff;fill-opacity:1;stroke-width:0.99858779"
       id="path963"
       inkscape:connector-curvature="0" /><path
       d="m 149.23533,16.162545 v 5.49 h 3.84618 v 2.22 h -3.84618 v 10.17 h -3.19948 v -10.17 h -2.58681 v -2.22 h 2.58681 v -5.49 z"
       style="font-style:normal;font-variant:normal;font-weight:bold;font-stretch:normal;font-size:30px;font-family:'Josefin Sans';-inkscape-font-specification:'Josefin Sans Bold';fill:#ffffff;fill-opacity:1;stroke-width:0.99858779"
       id="path965"
       inkscape:connector-curvature="0" /><path
       d="m 159.96975,24.562545 q 0.54459,-1.02 1.53166,-1.8 1.02111,-0.78 2.14433,-1.2 1.12322,-0.42 1.97415,-0.45 l -0.13615,2.79 q -1.53167,-0.06 -2.79103,0.54 -1.22534,0.6 -1.94011,1.68 -0.68074,1.05 -0.68074,2.25 v 5.67 h -3.16544 v -12.42 h 2.82507 z"
       style="font-style:normal;font-variant:normal;font-weight:bold;font-stretch:normal;font-size:30px;font-family:'Josefin Sans';-inkscape-font-specification:'Josefin Sans Bold';fill:#ffffff;fill-opacity:1;stroke-width:0.99858779"
       id="path967"
       inkscape:connector-curvature="0" /><path
       d="m 183.87009,21.622545 v 12.42 h -3.16544 v -2.04 q -0.74881,0.87 -2.17837,1.62 -1.42955,0.72 -3.23351,0.72 -2.00818,0 -3.64196,-0.75 -1.59974,-0.78 -2.55277,-2.25 -0.919,-1.47 -0.919,-3.51 0,-2.04 0.95303,-3.54 0.98708,-1.53 2.62085,-2.34 1.66781,-0.84 3.676,-0.84 1.80396,0 3.1314,0.69 1.32744,0.69 2.14433,1.8 l 0.23826,-1.98 z m -7.7264,10.41 q 1.73589,0 2.96122,-0.84 1.25937,-0.87 1.59974,-2.34 v -2.46 q -0.40844,-1.32 -1.70185,-2.13 -1.29341,-0.84 -2.96122,-0.84 -1.25937,0 -2.34855,0.54 -1.05515,0.54 -1.70185,1.53 -0.61267,0.96 -0.61267,2.19 0,1.2 0.64671,2.19 0.6467,0.99 1.73588,1.59 1.08919,0.57 2.38259,0.57 z"
       style="font-style:normal;font-variant:normal;font-weight:bold;font-stretch:normal;font-size:30px;font-family:'Josefin Sans';-inkscape-font-specification:'Josefin Sans Bold';fill:#ffffff;fill-opacity:1;stroke-width:0.99858779"
       id="path969"
       inkscape:connector-curvature="0" /><path
       d="m 192.57984,10.792545 v 23.25 h -3.16544 v -23.25 z"
       style="font-style:normal;font-variant:normal;font-weight:bold;font-stretch:normal;font-size:30px;font-family:'Josefin Sans';-inkscape-font-specification:'Josefin Sans Bold';fill:#ffffff;fill-opacity:1;stroke-width:0.99858779"
       id="path971"
       inkscape:connector-curvature="0" /><path
       d="m 201.28852,21.622545 v 12.42 h -3.16544 v -12.42 z m -3.4037,-4.47 q 0,-0.66 0.57863,-1.11 0.57863,-0.45 1.32744,-0.45 0.74881,0 1.29341,0.45 0.57862,0.45 0.57862,1.11 0,0.66 -0.57862,1.11 -0.5446,0.45 -1.29341,0.45 -0.74881,0 -1.32744,-0.45 -0.57863,-0.45 -0.57863,-1.11 z"
       style="font-style:normal;font-variant:normal;font-weight:bold;font-stretch:normal;font-size:30px;font-family:'Josefin Sans';-inkscape-font-specification:'Josefin Sans Bold';fill:#ffffff;fill-opacity:1;stroke-width:0.99858779"
       id="path973"
       inkscape:connector-curvature="0" /><path
       d="m 210.20142,31.732545 h 7.86255 v 2.31 H 205.0278 l 7.99869,-10.14 h -4.86729 q -1.12322,0 -1.838,-0.57 -0.71477,-0.6 -0.71477,-1.71 v -1.2 h 2.41662 v 0.39 q 0,0.48 0.23826,0.66 0.2723,0.15 0.919,0.15 h 9.0198 z"
       style="font-style:normal;font-variant:normal;font-weight:bold;font-stretch:normal;font-size:30px;font-family:'Josefin Sans';-inkscape-font-specification:'Josefin Sans Bold';fill:#ffffff;fill-opacity:1;stroke-width:0.99858779"
       id="path975"
       inkscape:connector-curvature="0" /><path
       d="m 229.19034,31.942545 q 1.76992,0 3.43774,-1.08 l 1.46359,2.07 q -1.12322,0.66 -2.45067,1.05 -1.2934,0.36 -2.51873,0.36 -2.34856,0 -4.11848,-0.84 -1.73589,-0.87 -2.68892,-2.37 -0.95304,-1.5 -0.95304,-3.39 0,-1.83 1.02111,-3.33 1.05515,-1.53 2.85911,-2.4 1.80396,-0.9 3.94829,-0.9 2.757,0 4.59499,1.44 1.87204,1.41 2.55278,3.96 l -11.16414,3.45 q 0.61267,0.93 1.63378,1.47 1.05515,0.51 2.38259,0.51 z m -0.23826,-8.61 q -1.94011,0 -3.19948,1.2 -1.25936,1.2 -1.25936,3.06 0,0.45 0.034,0.69 l 8.20292,-2.67 q -0.51056,-1.02 -1.46359,-1.65 -0.919,-0.63 -2.31452,-0.63 z"
       style="font-style:normal;font-variant:normal;font-weight:bold;font-stretch:normal;font-size:30px;font-family:'Josefin Sans';-inkscape-font-specification:'Josefin Sans Bold';fill:#ffffff;fill-opacity:1;stroke-width:0.99858779"
       id="path977"
       inkscape:connector-curvature="0" /><path
       d="m 254.97442,10.792545 v 23.25 h -3.19947 v -1.95 q -1.02111,1.05 -2.51874,1.65 -1.46359,0.6 -3.23351,0.6 -1.97415,0 -3.57389,-0.84 -1.59974,-0.84 -2.51873,-2.34 -0.88497,-1.53 -0.88497,-3.51 0,-2.01 0.95304,-3.48 0.95304,-1.5 2.62085,-2.28 1.66781,-0.78 3.7781,-0.78 1.59974,0 3.06333,0.6 1.49763,0.57 2.34856,1.59 v -12.51 z m -7.96465,21.15 q 1.838,0 3.09737,-0.87 1.2934,-0.87 1.66781,-2.34 v -2.34 q -0.40845,-1.35 -1.73589,-2.19 -1.32744,-0.87 -3.02929,-0.87 -1.29341,0 -2.38259,0.57 -1.08918,0.54 -1.73589,1.53 -0.6467,0.96 -0.6467,2.19 0,1.2 0.6467,2.19 0.64671,0.99 1.73589,1.56 1.08918,0.57 2.38259,0.57 z"
       style="font-style:normal;font-variant:normal;font-weight:bold;font-stretch:normal;font-size:30px;font-family:'Josefin Sans';-inkscape-font-specification:'Josefin Sans Bold';fill:#ffffff;fill-opacity:1;stroke-width:0.99858779"
       id="path979"
       inkscape:connector-curvature="0" /><path
       d="m 100.443,63.967545 h -9.462281 l -2.620848,5.7 H 85.09232 l 10.755688,-22.59 h 0.204222 l 10.75569,22.59 h -3.81214 z m -1.123219,-2.52 -3.50581,-7.92 -3.641957,7.92 z"
       style="font-style:normal;font-variant:normal;font-weight:bold;font-stretch:normal;font-size:30px;font-family:'Josefin Sans';-inkscape-font-specification:'Josefin Sans Bold';fill:#ffffff;fill-opacity:1;stroke-width:0.99858779"
       id="path981"
       inkscape:connector-curvature="0" /><path
       d="m 124.99749,46.417545 v 23.25 h -3.19948 v -1.95 q -1.02111,1.05 -2.51873,1.65 -1.46359,0.6 -3.23352,0.6 -1.97414,0 -3.57388,-0.84 -1.59974,-0.84 -2.51874,-2.34 -0.88496,-1.53 -0.88496,-3.51 0,-2.01 0.95303,-3.48 0.95304,-1.5 2.62085,-2.28 1.66782,-0.78 3.77811,-0.78 1.59974,0 3.06333,0.6 1.49763,0.57 2.34855,1.59 v -12.51 z m -7.96466,21.15 q 1.838,0 3.09737,-0.87 1.29341,-0.87 1.66781,-2.34 v -2.34 q -0.40844,-1.35 -1.73588,-2.19 -1.32745,-0.87 -3.0293,-0.87 -1.2934,0 -2.38258,0.57 -1.08919,0.54 -1.73589,1.53 -0.6467,0.96 -0.6467,2.19 0,1.2 0.6467,2.19 0.6467,0.99 1.73589,1.56 1.08918,0.57 2.38258,0.57 z"
       style="font-style:normal;font-variant:normal;font-weight:bold;font-stretch:normal;font-size:30px;font-family:'Josefin Sans';-inkscape-font-specification:'Josefin Sans Bold';fill:#ffffff;fill-opacity:1;stroke-width:0.99858779"
       id="path983"
       inkscape:connector-curvature="0" /><path
       d="m 148.57661,56.737545 q 2.04222,0 3.23352,1.02 1.22533,1.02 1.2934,2.7 v 9.21 h -3.16544 v -8.19 q -0.10211,-2.19 -2.24644,-2.31 -1.22533,0 -2.2124,0.66 -0.95304,0.63 -1.49763,1.68 -0.54459,1.05 -0.57863,2.25 v 5.91 h -3.19948 v -8.19 q -0.10211,-2.19 -2.31451,-2.31 -1.1913,0 -2.17837,0.66 -0.95303,0.63 -1.49763,1.71 -0.54459,1.05 -0.54459,2.25 v 5.88 h -3.16544 v -12.42 h 2.85911 l 0.23826,2.34 q 0.81689,-1.35 2.2124,-2.1 1.42956,-0.75 3.23352,-0.75 1.70185,0 2.8591,0.72 1.15726,0.69 1.49763,1.92 0.88496,-1.23 2.24644,-1.92 1.36148,-0.72 2.92718,-0.72 z"
       style="font-style:normal;font-variant:normal;font-weight:bold;font-stretch:normal;font-size:30px;font-family:'Josefin Sans';-inkscape-font-specification:'Josefin Sans Bold';fill:#ffffff;fill-opacity:1;stroke-width:0.99858779"
       id="path985"
       inkscape:connector-curvature="0" /><path
       d="m 161.72235,57.247545 v 12.42 h -3.16544 v -12.42 z m -3.4037,-4.47 q 0,-0.66 0.57863,-1.11 0.57862,-0.45 1.32744,-0.45 0.74881,0 1.2934,0.45 0.57863,0.45 0.57863,1.11 0,0.66 -0.57863,1.11 -0.54459,0.45 -1.2934,0.45 -0.74882,0 -1.32744,-0.45 -0.57863,-0.45 -0.57863,-1.11 z"
       style="font-style:normal;font-variant:normal;font-weight:bold;font-stretch:normal;font-size:30px;font-family:'Josefin Sans';-inkscape-font-specification:'Josefin Sans Bold';fill:#ffffff;fill-opacity:1;stroke-width:0.99858779"
       id="path987"
       inkscape:connector-curvature="0" /><path
       d="m 176.01309,56.767545 q 1.97415,0 3.26755,1.05 1.29341,1.02 1.32745,2.67 v 9.18 h -3.19948 v -8.22 q -0.0681,-1.05 -0.71478,-1.65 -0.6467,-0.6 -1.94011,-0.63 -1.87203,0 -3.09736,1.32 -1.22533,1.32 -1.22533,3.36 v 5.82 h -3.16544 v -12.42 h 2.8591 l 0.20423,2.4 q 0.74881,-1.35 2.24644,-2.1 1.49762,-0.78 3.43773,-0.78 z"
       style="font-style:normal;font-variant:normal;font-weight:bold;font-stretch:normal;font-size:30px;font-family:'Josefin Sans';-inkscape-font-specification:'Josefin Sans Bold';fill:#ffffff;fill-opacity:1;stroke-width:0.99858779"
       id="path989"
       inkscape:connector-curvature="0" /><path
       d="m 189.24444,57.247545 v 12.42 H 186.079 v -12.42 z m -3.4037,-4.47 q 0,-0.66 0.57863,-1.11 0.57863,-0.45 1.32744,-0.45 0.74882,0 1.29341,0.45 0.57863,0.45 0.57863,1.11 0,0.66 -0.57863,1.11 -0.54459,0.45 -1.29341,0.45 -0.74881,0 -1.32744,-0.45 -0.57863,-0.45 -0.57863,-1.11 z"
       style="font-style:normal;font-variant:normal;font-weight:bold;font-stretch:normal;font-size:30px;font-family:'Josefin Sans';-inkscape-font-specification:'Josefin Sans Bold';fill:#ffffff;fill-opacity:1;stroke-width:0.99858779"
       id="path991"
       inkscape:connector-curvature="0" /><path
       d="m 198.77001,69.937545 q -1.5657,0 -2.99526,-0.48 -1.39551,-0.48 -2.28048,-1.41 l 1.36148,-1.62 q 0.85093,0.72 1.76993,1.11 0.95303,0.39 1.87203,0.39 1.12322,0 1.838,-0.39 0.71478,-0.39 0.71478,-1.2 0,-0.63 -0.44248,-1.02 -0.44249,-0.39 -1.02111,-0.57 -0.5446,-0.18 -1.87204,-0.54 -3.60792,-1.02 -3.60792,-3.63 0,-1.56 1.29341,-2.67 1.32744,-1.11 3.67599,-1.11 1.49763,0 2.65489,0.33 1.15725,0.33 2.14433,1.05 l -1.25937,1.71 q -0.54459,-0.51 -1.39552,-0.81 -0.81689,-0.3 -1.5657,-0.33 -0.95304,0 -1.63378,0.42 -0.68074,0.39 -0.68074,1.08 0,0.57 0.44249,0.96 0.44248,0.36 0.91899,0.54 0.47652,0.15 1.87204,0.54 1.73588,0.51 2.68892,1.32 0.98707,0.81 0.98707,2.19 0,1.8 -1.42955,2.97 -1.42955,1.17 -4.0504,1.17 z"
       style="font-style:normal;font-variant:normal;font-weight:bold;font-stretch:normal;font-size:30px;font-family:'Josefin Sans';-inkscape-font-specification:'Josefin Sans Bold';fill:#ffffff;fill-opacity:1;stroke-width:0.99858779"
       id="path993"
       inkscape:connector-curvature="0" /><path
       d="m 213.24264,51.787545 v 5.49 h 3.84618 v 2.22 h -3.84618 v 10.17 h -3.19948 v -10.17 h -2.58681 v -2.22 h 2.58681 v -5.49 z"
       style="font-style:normal;font-variant:normal;font-weight:bold;font-stretch:normal;font-size:30px;font-family:'Josefin Sans';-inkscape-font-specification:'Josefin Sans Bold';fill:#ffffff;fill-opacity:1;stroke-width:0.99858779"
       id="path995"
       inkscape:connector-curvature="0" /><path
       d="m 223.97705,60.187545 q 0.54459,-1.02 1.53167,-1.8 1.02111,-0.78 2.14433,-1.2 1.12322,-0.42 1.97414,-0.45 l -0.13614,2.79 q -1.53167,-0.06 -2.79104,0.54 -1.22533,0.6 -1.94011,1.68 -0.68074,1.05 -0.68074,2.25 v 5.67 h -3.16544 v -12.42 h 2.82507 z"
       style="font-style:normal;font-variant:normal;font-weight:bold;font-stretch:normal;font-size:30px;font-family:'Josefin Sans';-inkscape-font-specification:'Josefin Sans Bold';fill:#ffffff;fill-opacity:1;stroke-width:0.99858779"
       id="path997"
       inkscape:connector-curvature="0" /><path
       d="m 247.87741,57.247545 v 12.42 h -3.16544 v -2.04 q -0.74882,0.87 -2.17837,1.62 -1.42955,0.72 -3.23351,0.72 -2.00819,0 -3.64196,-0.75 -1.59974,-0.78 -2.55278,-2.25 -0.919,-1.47 -0.919,-3.51 0,-2.04 0.95304,-3.54 0.98707,-1.53 2.62085,-2.34 1.66781,-0.84 3.67599,-0.84 1.80396,0 3.13141,0.69 1.32744,0.69 2.14433,1.8 l 0.23826,-1.98 z m -7.7264,10.41 q 1.73589,0 2.96122,-0.84 1.25937,-0.87 1.59974,-2.34 v -2.46 q -0.40845,-1.32 -1.70185,-2.13 -1.29341,-0.84 -2.96122,-0.84 -1.25937,0 -2.34855,0.54 -1.05515,0.54 -1.70185,1.53 -0.61267,0.96 -0.61267,2.19 0,1.2 0.6467,2.19 0.64671,0.99 1.73589,1.59 1.08918,0.57 2.38259,0.57 z"
       style="font-style:normal;font-variant:normal;font-weight:bold;font-stretch:normal;font-size:30px;font-family:'Josefin Sans';-inkscape-font-specification:'Josefin Sans Bold';fill:#ffffff;fill-opacity:1;stroke-width:0.99858779"
       id="path999"
       inkscape:connector-curvature="0" /><path
       d="m 257.98267,51.787545 v 5.49 h 3.84618 v 2.22 h -3.84618 v 10.17 h -3.19948 v -10.17 h -2.58681 v -2.22 h 2.58681 v -5.49 z"
       style="font-style:normal;font-variant:normal;font-weight:bold;font-stretch:normal;font-size:30px;font-family:'Josefin Sans';-inkscape-font-specification:'Josefin Sans Bold';fill:#ffffff;fill-opacity:1;stroke-width:0.99858779"
       id="path1001"
       inkscape:connector-curvature="0" /><path
       d="m 268.8192,57.247545 v 12.42 h -3.16544 v -12.42 z m -3.4037,-4.47 q 0,-0.66 0.57863,-1.11 0.57863,-0.45 1.32744,-0.45 0.74881,0 1.29341,0.45 0.57862,0.45 0.57862,1.11 0,0.66 -0.57862,1.11 -0.5446,0.45 -1.29341,0.45 -0.74881,0 -1.32744,-0.45 -0.57863,-0.45 -0.57863,-1.11 z"
       style="font-style:normal;font-variant:normal;font-weight:bold;font-stretch:normal;font-size:30px;font-family:'Josefin Sans';-inkscape-font-specification:'Josefin Sans Bold';fill:#ffffff;fill-opacity:1;stroke-width:0.99858779"
       id="path1003"
       inkscape:connector-curvature="0" /><path
       d="m 273.13711,63.337545 q 0,-1.83 0.98707,-3.33 1.02111,-1.53 2.79103,-2.4 1.80396,-0.87 4.0504,-0.87 2.24645,0 3.98233,0.87 1.76993,0.87 2.72296,2.37 0.98707,1.5 0.98707,3.36 0,1.86 -0.98707,3.39 -0.95303,1.5 -2.72296,2.37 -1.76992,0.87 -4.0504,0.87 -2.2124,0 -3.98233,-0.81 -1.76992,-0.84 -2.79103,-2.34 -0.98707,-1.5 -0.98707,-3.48 z m 3.19947,0.03 q 0,1.17 0.57863,2.16 0.61267,0.99 1.63378,1.56 1.05514,0.57 2.31451,0.57 1.97415,0 3.26755,-1.23 1.29341,-1.23 1.29341,-3.06 0,-1.83 -1.29341,-3.06 -1.2934,-1.26 -3.26755,-1.26 -1.2934,0 -2.31451,0.6 -1.02111,0.57 -1.63378,1.56 -0.57863,0.99 -0.57863,2.16 z"
       style="font-style:normal;font-variant:normal;font-weight:bold;font-stretch:normal;font-size:30px;font-family:'Josefin Sans';-inkscape-font-specification:'Josefin Sans Bold';fill:#ffffff;fill-opacity:1;stroke-width:0.99858779"
       id="path1005"
       inkscape:connector-curvature="0" /><path
       d="m 301.65745,56.767545 q 1.97414,0 3.26755,1.05 1.2934,1.02 1.32744,2.67 v 9.18 h -3.19948 v -8.22 q -0.0681,-1.05 -0.71477,-1.65 -0.6467,-0.6 -1.94011,-0.63 -1.87203,0 -3.09737,1.32 -1.22533,1.32 -1.22533,3.36 v 5.82 h -3.16544 v -12.42 h 2.85911 l 0.20422,2.4 q 0.74882,-1.35 2.24644,-2.1 1.49763,-0.78 3.43774,-0.78 z"
       style="font-style:normal;font-variant:normal;font-weight:bold;font-stretch:normal;font-size:30px;font-family:'Josefin Sans';-inkscape-font-specification:'Josefin Sans Bold';fill:#ffffff;fill-opacity:1;stroke-width:0.99858779"
       id="path1007"
       inkscape:connector-curvature="0" /><path
       d="m 336.00555,51.847545 q -1.32745,-0.63 -2.82507,-1.02 -1.49763,-0.39 -2.82507,-0.39 -2.00819,0 -3.19948,0.81 -1.15726,0.78 -1.15726,2.16 0,1.35 1.36148,2.22 1.39552,0.84 3.94829,1.68 1.90607,0.6 3.19948,1.32 1.32744,0.69 2.17837,1.95 0.88496,1.23 0.88496,3.15 0,1.74 -0.98707,3.15 -0.98708,1.41 -2.82507,2.22 -1.80397,0.81 -4.25463,0.81 -2.28048,0 -4.39077,-0.63 -2.11029,-0.66 -3.71003,-1.65 l 1.46359,-2.31 q 1.25937,0.84 3.02929,1.44 1.76992,0.57 3.30159,0.57 1.97414,0 3.43773,-0.9 1.49763,-0.9 1.49763,-2.67 0,-1.5 -1.25937,-2.37 -1.22533,-0.9 -3.47177,-1.68 -2.07626,-0.69 -3.47177,-1.35 -1.36148,-0.66 -2.34855,-1.8 -0.98708,-1.17 -0.98708,-2.91 0,-2.55 2.00819,-4.11 2.04221,-1.59 5.27573,-1.68 3.98233,0 7.38603,1.74 z"
       style="font-style:normal;font-variant:normal;font-weight:bold;font-stretch:normal;font-size:30px;font-family:'Josefin Sans';-inkscape-font-specification:'Josefin Sans Bold';fill:#ffffff;fill-opacity:1;stroke-width:0.99858779"
       id="path1009"
       inkscape:connector-curvature="0" /><path
       d="m 355.71403,57.247545 -9.08788,18.39 h -3.1314 l 3.23351,-6.39 -6.5351,-12 h 3.57389 l 4.56095,8.85 4.45885,-8.85 z"
       style="font-style:normal;font-variant:normal;font-weight:bold;font-stretch:normal;font-size:30px;font-family:'Josefin Sans';-inkscape-font-specification:'Josefin Sans Bold';fill:#ffffff;fill-opacity:1;stroke-width:0.99858779"
       id="path1011"
       inkscape:connector-curvature="0" /><path
       d="m 363.10484,69.937545 q -1.5657,0 -2.99525,-0.48 -1.39552,-0.48 -2.28048,-1.41 l 1.36148,-1.62 q 0.85092,0.72 1.76992,1.11 0.95304,0.39 1.87204,0.39 1.12322,0 1.838,-0.39 0.71477,-0.39 0.71477,-1.2 0,-0.63 -0.44248,-1.02 -0.44248,-0.39 -1.02111,-0.57 -0.54459,-0.18 -1.87203,-0.54 -3.60792,-1.02 -3.60792,-3.63 0,-1.56 1.2934,-2.67 1.32744,-1.11 3.676,-1.11 1.49762,0 2.65488,0.33 1.15726,0.33 2.14433,1.05 l -1.25937,1.71 q -0.54459,-0.51 -1.39551,-0.81 -0.81689,-0.3 -1.5657,-0.33 -0.95304,0 -1.63378,0.42 -0.68074,0.39 -0.68074,1.08 0,0.57 0.44248,0.96 0.44248,0.36 0.919,0.54 0.47652,0.15 1.87203,0.54 1.73589,0.51 2.68893,1.32 0.98707,0.81 0.98707,2.19 0,1.8 -1.42955,2.97 -1.42956,1.17 -4.05041,1.17 z"
       style="font-style:normal;font-variant:normal;font-weight:bold;font-stretch:normal;font-size:30px;font-family:'Josefin Sans';-inkscape-font-specification:'Josefin Sans Bold';fill:#ffffff;fill-opacity:1;stroke-width:0.99858779"
       id="path1013"
       inkscape:connector-curvature="0" /><path
       d="m 377.57747,51.787545 v 5.49 h 3.84618 v 2.22 h -3.84618 v 10.17 H 374.378 v -10.17 h -2.58681 v -2.22 h 2.58681 v -5.49 z"
       style="font-style:normal;font-variant:normal;font-weight:bold;font-stretch:normal;font-size:30px;font-family:'Josefin Sans';-inkscape-font-specification:'Josefin Sans Bold';fill:#ffffff;fill-opacity:1;stroke-width:0.99858779"
       id="path1015"
       inkscape:connector-curvature="0" /><path
       d="m 391.85174,67.567545 q 1.76992,0 3.43773,-1.08 l 1.46359,2.07 q -1.12322,0.66 -2.45066,1.05 -1.29341,0.36 -2.51874,0.36 -2.34855,0 -4.11847,-0.84 -1.73589,-0.87 -2.68893,-2.37 -0.95303,-1.5 -0.95303,-3.39 0,-1.83 1.02111,-3.33 1.05514,-1.53 2.85911,-2.4 1.80396,-0.9 3.94829,-0.9 2.75699,0 4.59499,1.44 1.87203,1.41 2.55277,3.96 l -11.16413,3.45 q 0.61267,0.93 1.63378,1.47 1.05514,0.51 2.38259,0.51 z m -0.23826,-8.61 q -1.94011,0 -3.19948,1.2 -1.25937,1.2 -1.25937,3.06 0,0.45 0.034,0.69 l 8.20291,-2.67 q -0.51055,-1.02 -1.46359,-1.65 -0.919,-0.63 -2.31451,-0.63 z"
       style="font-style:normal;font-variant:normal;font-weight:bold;font-stretch:normal;font-size:30px;font-family:'Josefin Sans';-inkscape-font-specification:'Josefin Sans Bold';fill:#ffffff;fill-opacity:1;stroke-width:0.99858779"
       id="path1017"
       inkscape:connector-curvature="0" /><path
       d="m 421.00548,56.737545 q 2.04222,0 3.23352,1.02 1.22533,1.02 1.2934,2.7 v 9.21 h -3.16544 v -8.19 q -0.10211,-2.19 -2.24644,-2.31 -1.22533,0 -2.2124,0.66 -0.95304,0.63 -1.49763,1.68 -0.54459,1.05 -0.57863,2.25 v 5.91 h -3.19948 v -8.19 q -0.10211,-2.19 -2.31451,-2.31 -1.1913,0 -2.17837,0.66 -0.95303,0.63 -1.49763,1.71 -0.54459,1.05 -0.54459,2.25 v 5.88 h -3.16544 v -12.42 h 2.85911 l 0.23826,2.34 q 0.81689,-1.35 2.2124,-2.1 1.42956,-0.75 3.23352,-0.75 1.70185,0 2.8591,0.72 1.15726,0.69 1.49763,1.92 0.88496,-1.23 2.24644,-1.92 1.36148,-0.72 2.92718,-0.72 z"
       style="font-style:normal;font-variant:normal;font-weight:bold;font-stretch:normal;font-size:30px;font-family:'Josefin Sans';-inkscape-font-specification:'Josefin Sans Bold';fill:#ffffff;fill-opacity:1;stroke-width:0.99858779"
       id="path1019"
       inkscape:connector-curvature="0" /></g><g
     id="Layer_2"
     display="none"
     style="display:none"
     transform="translate(-11.391668,29.732126)"><rect
       x="0.5"
       display="inline"
       width="320"
       height="50"
       id="rect4599"
       y="0"
       style="display:inline" /></g><g
     style="display:none"
     display="none"
     id="Layer_1_1_"
     transform="translate(-12.14817,29.732126)"><rect
       style="display:inline"
       y="0"
       x="0"
       id="rect4602"
       height="45"
       width="320"
       display="inline" /></g><style
     id="style4627"
     type="text/css">
  .st0{fill:#FFFFFF;}
  .st1{fill:#015297;}
</style><g
     id="g4682"
     transform="matrix(2.4640986,0,0,2.3425103,-28.302243,1.5575203)"><g
       transform="matrix(0.3806044,0,0,0.3806044,11.892086,-1.7321253)"
       id="g4668"><g
         id="shield"><path
           style="fill:#ffffff"
           inkscape:connector-curvature="0"
           class="st0 shielg-bg"
           d="M 114.97,68.53 V 3.51 C 114.97,1.57 113.4,0 111.46,0 H 3.57 C 1.64,0 0.06,1.57 0.06,3.51 v 65.02 c -0.12,1.82 -0.61,12.11 5.45,24.34 5.93,11.87 19.49,28.09 50.25,38.14 l 0.24,0.12 c 0.48,0.24 0.97,0.24 1.45,0.24 0.36,0 0.73,0 1.09,-0.12 l 0.48,-0.12 c 31,-9.93 44.56,-26.28 50.49,-38.14 6.07,-12.35 5.58,-22.64 5.46,-24.46"
           id="path4631" /><path
           style="fill:#1a1a1a"
           inkscape:connector-curvature="0"
           class="st1 shielg-outline"
           d="M 111.46,68.66 V 3.51 H 3.57 v 65.14 c -0.12,1.09 -0.85,10.78 5.09,22.65 5.57,11.26 18.53,26.76 48.31,36.33 l 0.36,0.12 0.48,-0.12 c 29.79,-9.57 42.74,-25.06 48.43,-36.33 5.95,-11.87 5.34,-21.56 5.22,-22.64 M 108.67,6.3 V 37.66 H 6.24 V 6.3 c 0,0 102.43,0 102.43,0 z m -4.84,84.03 C 98.38,101.11 86.03,115.76 57.58,125.08 29,115.76 16.65,100.98 11.2,90.33 5.39,78.58 6.24,69.02 6.24,68.9 V 39.47 h 102.44 v 29.3 0.12 c -0.01,0.13 0.96,9.69 -4.85,21.44"
           id="path4633" /></g><g
         id="ssis"><path
           style="fill:#1a1a1a"
           inkscape:connector-curvature="0"
           class="st1 logo-text"
           d="m 32.47,31.09 c 4.48,0 7.39,-2.18 7.39,-5.33 0,-2.79 -2.18,-4.36 -4.36,-5.57 l -2.79,-1.33 c -1.33,-0.61 -2.91,-1.94 -2.91,-3.51 0,-1.33 0.73,-3.15 4.12,-3.15 3.27,0 4.24,1.82 4.73,3.27 0.12,0.12 0.73,0.12 0.85,-0.12 0,-1.21 -0.36,-2.79 -0.61,-3.51 -0.24,0 -0.73,0 -1.21,-0.12 -0.85,-0.24 -2.18,-0.36 -3.27,-0.36 -4.48,0 -7.03,2.18 -7.03,4.97 0,2.42 2.06,4 3.76,4.97 l 3.27,1.82 c 2.54,1.33 2.79,2.79 2.79,4 0,1.7 -1.45,3.27 -4.36,3.27 -4,0 -5.45,-2.79 -5.94,-4.24 C 26.78,26 26.29,26 26.05,26.24 c 0.12,1.33 0.48,3.39 0.97,4 0.61,0.12 2.43,0.85 5.45,0.85"
           id="path4636-3" /><path
           style="fill:#1a1a1a"
           inkscape:connector-curvature="0"
           class="st1 logo-text"
           d="m 50.77,31.09 c 4.48,0 7.39,-2.18 7.39,-5.33 0,-2.79 -2.18,-4.36 -4.36,-5.57 L 51.01,18.74 C 49.68,18.13 48.1,16.8 48.1,15.23 c 0,-1.33 0.73,-3.15 4.12,-3.15 3.27,0 4.24,1.82 4.73,3.27 0.12,0.12 0.73,0.12 0.85,-0.12 0,-1.21 -0.36,-2.79 -0.61,-3.51 -0.24,0 -0.73,0 -1.21,-0.12 -0.85,-0.24 -2.18,-0.36 -3.27,-0.36 -4.48,0 -7.03,2.18 -7.03,4.97 0,2.42 2.06,4 3.76,4.97 L 52.71,23 c 2.54,1.33 2.79,2.79 2.79,4 0,1.7 -1.45,3.27 -4.36,3.27 -4,0 -5.45,-2.79 -5.94,-4.24 -0.12,-0.12 -0.61,-0.12 -0.85,0.12 0.12,1.33 0.48,3.39 0.97,4 0.72,0.21 2.54,0.94 5.45,0.94"
           id="path4638-6" /><path
           style="fill:#1a1a1a"
           inkscape:connector-curvature="0"
           class="st1 logo-text"
           d="m 63.61,30 -0.85,0.12 c -0.24,0.12 -0.12,0.61 0.12,0.73 1.7,0 2.91,-0.12 4.36,-0.12 1.33,0 2.54,0 4.24,0.12 0.24,-0.12 0.24,-0.61 0.12,-0.73 L 70.76,30 C 68.7,29.76 68.58,29.39 68.58,26.37 v -10.3 c 0,-3.03 0.12,-3.51 2.18,-3.63 l 0.85,-0.12 c 0.24,-0.12 0.12,-0.61 -0.12,-0.73 -1.7,0 -2.91,0.12 -4.24,0.12 -1.45,0 -2.67,0 -4.36,-0.12 -0.24,0.12 -0.24,0.61 -0.12,0.73 l 0.85,0.12 c 2.06,0.12 2.06,0.61 2.06,3.63 v 10.3 c 0.11,3.02 -0.01,3.38 -2.07,3.63"
           id="path4640-7" /><path
           style="fill:#1a1a1a"
           inkscape:connector-curvature="0"
           class="st1 logo-text"
           d="m 82.27,31.09 c 4.48,0 7.39,-2.18 7.39,-5.33 0,-2.79 -2.18,-4.36 -4.36,-5.57 L 82.51,18.74 C 81.18,18.13 79.6,16.8 79.6,15.23 c 0,-1.33 0.73,-3.15 4.12,-3.15 3.27,0 4.24,1.82 4.73,3.27 0.12,0.12 0.73,0.12 0.85,-0.12 0,-1.21 -0.36,-2.79 -0.61,-3.51 -0.24,0 -0.73,0 -1.21,-0.12 -0.85,-0.24 -2.18,-0.36 -3.27,-0.36 -4.48,0 -7.03,2.18 -7.03,4.97 0,2.42 2.06,4 3.76,4.97 L 84.21,23 c 2.54,1.33 2.79,2.79 2.79,4 0,1.7 -1.45,3.27 -4.36,3.27 -4,0 -5.45,-2.79 -5.94,-4.24 -0.12,-0.12 -0.61,-0.12 -0.85,0.12 0.12,1.33 0.48,3.39 0.97,4 0.6,0.21 2.54,0.94 5.45,0.94"
           id="path4642-5" /></g><g
         id="dragon"><path
           style="fill:#1a1a1a"
           inkscape:connector-curvature="0"
           class="st1 dragon-toungue"
           d="m 35.25,74.28 c 0.76,-0.89 1.9,0.25 2.28,1.4 0.25,0.89 1.52,1.78 3.05,2.03 0,0 -1.78,-0.51 -3.05,-3.05 -0.63,-1.27 -2.67,-2.41 -3.68,-1.02 -0.5,0.89 0.64,1.53 1.4,0.64"
           id="path4645" /><path
           style="fill:#1a1a1a"
           inkscape:connector-curvature="0"
           class="st1 dragon-body"
           d="m 74.22,49.02 c 5.08,-0.13 5.33,0.51 8.12,3.55 2.67,2.79 3.3,3.93 7.87,2.92 -5.84,-0.63 -4.7,-6.6 -11.3,-8.25 -4.19,-1.02 -5.46,0.38 -10.03,-0.89 0.25,0 2.16,-0.13 3.68,-0.76 1.52,-0.63 3.17,-0.63 5.71,0.38 -2.92,-2.16 -5.84,-2.28 -7.74,-2.03 -1.14,0.13 -2.67,0.25 -4.95,1.14 -1.65,0.63 -3.17,0.76 -4.44,0.63 -3.3,-0.38 -2.54,-1.27 -2.54,-1.52 1.02,-1.14 2.41,-0.25 2.41,-0.25 0,0 -0.38,-1.14 -1.65,-1.27 -1.65,-0.38 -3.17,0.76 -3.68,1.14 -0.89,0.76 -2.16,1.65 -2.79,0.89 -0.76,-0.89 0.63,-1.78 1.02,-1.65 -0.51,-0.51 -1.65,-1.27 -3.3,0.63 -1.65,1.9 -3.3,2.79 -4.32,2.16 -1.02,-0.63 0.25,-1.9 0.38,-1.9 -1.02,-0.38 -2.67,0.51 -2.67,2.67 0,2.16 -1.65,2.41 -1.65,2.41 -1.4,-0.38 -0.38,-2.54 -0.25,-2.54 -1.78,0.51 -2.79,3.43 -2.79,5.59 -0.89,1.02 -1.52,2.28 -1.9,3.55 -0.38,-0.13 -0.76,0 -1.4,0.38 -0.89,0.63 -1.4,1.9 -1.4,1.9 -2.79,-1.4 -4.7,-0.13 -4.82,-0.13 1.78,-0.13 3.43,0.89 3.17,2.54 -0.26,1.65 -3.93,1.9 -4.06,1.78 1.27,1.4 3.55,0.51 3.68,0.25 0.51,1.78 -2.28,2.16 -3.17,2.16 1.52,1.14 3.43,0.13 3.55,0 0.13,1.78 -2.92,2.03 -2.92,2.03 1.52,0.63 2.67,0.51 3.68,-0.13 1.01,-0.64 1.28,-2.15 1.28,-4.05 -0.13,-2.03 1.27,-2.67 1.27,-2.67 0,0 0.38,0.76 1.02,1.27 2.54,10.54 21.45,10.79 27.54,11.3 13.33,1.27 17.52,14.85 12.44,23.1 -3.05,3.68 -2.41,-0.13 -1.14,-0.51 -1.02,-0.76 -2.79,0.63 -3.43,3.05 -0.63,2.03 -2.28,2.41 -2.92,2.28 -0.76,-0.38 -0.25,-1.14 0.51,-1.4 -2.03,-1.02 -3.17,1.52 -4.7,2.92 -1.65,1.52 -4.06,1.27 -4.95,0.76 -1.02,-0.51 -0.51,-1.52 1.14,-1.65 -2.16,-1.52 -3.68,0.76 -5.97,1.27 -2.16,0.51 -4.06,-0.25 -4.06,-1.4 0,0 -0.13,-1.27 1.65,-1.27 -0.13,-0.38 -1.02,-1.14 -3.3,0 -1.14,0.51 -2.16,0.13 -2.92,-0.51 -0.25,-0.25 -0.63,-0.63 -0.89,-0.89 -2.41,-2.92 -2.28,-6.47 1.27,-7.62 2.79,-0.13 2.41,1.4 5.33,1.02 -1.65,-0.63 -2.54,-1.27 -1.65,-1.78 0.51,-0.25 1.9,0.13 2.54,0.63 1.27,1.02 4.57,2.92 8.25,0.13 -4.06,0.25 -6.09,-1.78 -5.71,-2.67 0.38,-0.63 2.16,-0.63 3.81,0.76 5.08,3.05 6.47,0.76 7.87,0 -4.95,0.25 -5.71,-1.4 -5.46,-2.16 0.63,-1.9 6.09,-2.28 7.62,-0.13 -0.25,-0.38 -0.63,-2.79 -3.93,-2.79 -1.9,0 -3.05,-0.13 -2.92,-1.02 1.27,-2.92 7.87,0.51 7.87,0.51 -3.17,-4.7 -7.49,-2.92 -9.77,-2.41 -1.02,0.25 -1.65,-0.38 -1.65,-0.76 0.25,-2.41 4.82,-0.76 4.82,-0.76 -1.27,-2.28 -3.68,-1.78 -5.97,-1.02 -2.29,0.76 -2.92,-0.25 -2.92,-0.25 -0.13,-1.4 3.81,-2.28 5.2,-1.27 -1.52,-2.54 -5.84,-0.63 -5.84,-0.63 -2.54,0.89 -4.82,0.25 -4.95,-0.51 -0.13,-0.76 0.51,-1.65 1.78,-2.16 -0.76,0 -3.05,0 -5.33,-0.76 -3.05,-0.89 -3.43,0.51 -3.93,1.02 -0.51,0.51 -2.41,-0.89 -2.54,-1.27 -0.13,-0.38 0.51,-0.76 0,-1.52 -2.16,-2.03 -2.92,-0.51 -3.3,-0.25 -2.16,-1.4 -2.54,2.41 -2.54,2.41 0,0 0.89,-0.76 3.05,0.63 2.16,1.39 1.9,2.79 3.43,3.93 1.53,1.14 1.9,0.63 2.54,0.63 0.64,0 1.14,1.9 0.76,2.54 -0.51,-0.63 -1.02,-2.03 -2.54,-1.65 -1.52,0.51 -5.46,1.78 -6.47,-3.55 -1.14,0.89 -3.81,2.67 -1.14,4.82 1.78,1.4 6.09,1.02 7.24,1.27 1.27,0.25 4.19,0.76 3.81,2.67 -0.13,0.89 -1.27,2.16 -2.92,2.67 v 0 h -0.13 c -4.32,1.78 -5.58,4.82 -5.97,6.73 -0.13,0.76 -0.25,1.78 -0.13,2.79 -1.14,0.76 -3.05,0.51 -3.05,0.51 0,0 -1.02,-3.05 -0.25,-4.95 0.63,-1.78 0.89,-3.3 0.25,-4.32 -0.64,-1.02 -1.4,-1.65 -2.92,-1.52 0,0 2.28,1.4 1.65,3.05 0,-0.25 -1.27,-1.78 -2.79,-1.4 0.76,0.38 2.92,1.9 1.9,3.3 0,-0.25 -1.52,-2.03 -3.05,-1.14 0.13,-0.13 3.05,1.52 2.67,3.17 -0.38,1.65 -2.03,2.03 -3.43,1.14 0.13,0 1.27,1.9 3.93,1.65 0,0 -0.51,2.28 -0.13,3.17 0.89,1.9 4.19,1.14 6.09,0.63 1.4,3.43 4.57,6.98 10.54,9.27 1.52,0.51 3.05,1.02 4.82,1.27 0,0.13 0,0.25 0,0.25 0,0 -2.92,0.51 -4.95,-0.25 -1.9,-0.76 -3.55,-1.02 -4.44,-0.63 -0.89,0.39 -1.4,1.02 -1.14,2.28 0,0 1.02,-1.78 2.79,-1.02 -0.25,0 -1.65,0.89 -0.89,2.16 0.25,-0.51 1.4,-2.16 3.05,-1.27 -0.25,0 -1.78,1.02 -0.63,2.41 -0.13,-0.13 1.02,-2.28 2.79,-1.9 1.78,0.51 2.41,1.78 1.78,2.92 0,-0.13 1.78,-0.76 1.02,-3.05 0,0 2.41,0.76 3.3,0.38 1.14,-0.38 1.02,-1.14 0.63,-1.9 10.15,0.89 22.09,-2.28 28.18,-10.79 2.16,-3.17 3.55,-7.62 3.43,-12.31 0.25,-1.27 0.63,-2.03 0.89,-2.28 0.51,-0.89 1.02,-1.9 1.02,-3.17 0,-1.52 -0.76,-3.17 -1.4,-3.93 0,0 0.89,4.19 -0.76,4.44 -0.25,0 -0.38,-0.13 -0.51,-0.25 C 86.03,81.63 85.78,81 85.65,80.49 v 0 c 0,-0.25 0.13,-0.51 0.13,-0.76 0.89,-3.68 0.76,-8 -3.43,-9.01 2.41,1.52 1.27,4.95 0.51,4.82 -0.38,-0.51 -0.76,-0.89 -1.14,-1.4 -0.38,-1.02 -0.51,-2.28 -0.76,-3.55 -1.4,-3.05 -3.43,-3.81 -4.95,-3.05 1.02,-0.13 1.78,1.02 1.4,1.52 -1.27,1.65 -3.93,-1.14 -4.7,-2.03 -0.13,-0.13 -0.13,-0.25 -0.13,-0.25 -1.02,-1.65 -3.43,-4.82 -5.58,-3.17 1.52,0 1.52,1.02 1.52,1.02 0,0.89 -2.28,1.65 -4.06,-0.13 -0.76,-0.76 -4.57,-4.19 -7.11,-1.52 3.43,-0.89 4.06,1.27 2.54,1.78 -2.03,0.51 -3.17,-0.13 -5.71,-2.03 -2.28,-1.65 -4.57,-2.67 -6.6,-1.65 2.28,0.25 3.93,2.67 1.52,3.3 -0.13,0 -0.76,0 -1.52,-0.38 -2.16,-1.14 -3.3,-2.67 -3.93,-4.82 -1.27,-4.06 2.92,-9.39 12.69,-10.54 2.41,0.38 1.9,1.78 4.7,1.78 -1.52,-0.89 -2.03,-1.52 -1.14,-1.9 0.13,0 0.38,-0.13 0.76,0 3.3,0.63 0.63,5.84 7.74,5.84 -4.44,-1.65 -4.06,-3.68 -3.81,-4.57 2.03,4.44 9.39,3.17 6.6,11.8 1.14,-1.52 4.82,-6.22 0.25,-8.5 C 70.3,52.2 67,51.95 66.87,49.41 c 1.27,2.41 6.6,3.68 8.63,3.81 3.55,0.25 3.93,3.43 4.44,5.71 1.9,-9.01 -4.82,-8.25 -8.63,-8.5 -1.9,-0.13 -2.79,-2.28 -2.79,-2.28 2.27,1 4.18,0.87 5.7,0.87 M 49.98,79.86 c -0.38,0.38 -1.14,0.38 -1.78,-0.13 -0.63,-0.51 -0.89,-1.14 -0.51,-1.52 0.38,-0.38 1.27,-0.38 1.9,0 0.64,0.38 0.77,1.15 0.39,1.65 m 2.41,0.26 c 0,0 -0.38,-3.68 -5.46,-3.43 1.65,-0.38 5.71,-0.76 5.46,3.43"
           id="path4647" /></g></g></g></svg>